<svg xmlns="http://www.w3.org/2000/svg" width="122" height="51" viewBox="0 0 122 51" fill="none">
  <path d="M114.328 0H78.1366C74.3235 0 71.2324 2.95144 71.2324 6.59222V43.4078C71.2324 47.0486 74.3235 50 78.1366 50H114.328C118.141 50 121.232 47.0486 121.232 43.4078V6.59222C121.232 2.95144 118.141 0 114.328 0Z" fill="#C6FF34"/>
  <path d="M100.881 17.1933C98.3156 14.6305 94.1601 14.6305 91.5946 17.1933L87.2397 12.8397L90.5275 9.55127L96.2405 15.2635L101.954 9.55127L105.241 12.8397L100.881 17.1985V17.1933Z" fill="black"/>
  <path d="M100.881 32.8067C98.3156 35.3694 94.1601 35.3694 91.5946 32.8067L87.2397 37.1603L90.5275 40.4487L96.2405 34.7365L101.954 40.4487L105.241 37.1603L100.881 32.8015V32.8067Z" fill="black"/>
  <path d="M88.4311 20.3581C85.8656 22.9209 85.8656 27.079 88.4311 29.647L84.0763 34.0006L80.7886 30.7122L86.5016 25L80.7886 19.2878L84.0763 15.9994L88.4365 20.3581H88.4311Z" fill="black"/>
  <path d="M104.04 20.3581C106.606 22.9209 106.606 27.079 104.04 29.647L108.395 34.0006L111.683 30.7122L105.97 25L111.683 19.2878L108.395 15.9994L104.035 20.3581H104.04Z" fill="black"/>
  <path d="M51.3672 2.19864V3.11002L58.8694 0.916532V0L51.3672 2.19864Z" fill="black"/>
  <path d="M28.1397 1.90514L29.5608 3.34173L31.2497 1.65284L29.5608 0L28.1397 1.40054L26.7237 0L25.0503 1.65284L26.7237 3.34173L28.1397 1.90514Z" fill="black"/>
  <path d="M37.7992 12.2033V10.6276H31.8932C31.7954 9.44336 31.5637 8.41355 31.2135 7.53821C30.8428 6.66287 30.4154 5.9832 29.8748 5.49919C29.3496 5.01517 28.7677 4.77832 28.1447 4.77832C27.6607 4.77832 27.2127 4.93278 26.7647 5.24687C26.3374 5.55581 25.946 5.9832 25.6011 6.529C25.2509 7.0748 24.978 7.65664 24.7824 8.31572C24.5867 8.9748 24.4734 9.65447 24.4734 10.3547C24.4734 11.364 24.7669 12.1827 25.3282 12.7851C25.91 13.3669 26.7648 13.681 27.9336 13.681H31.1414C31.1414 13.9333 31.1209 14.2062 31.0848 14.5152C30.2867 15.0198 29.2208 15.4472 27.9181 15.8179C26.5948 16.1886 25.1171 16.477 23.4694 16.6933C21.8371 16.9095 20.1276 17.0022 18.3564 17.0022C14.994 17.0022 11.7501 16.5954 8.66067 15.7767C5.57123 14.958 2.77013 13.7531 0.283138 12.1827L0.0102539 12.5688L4.20672 17.2339C6.2097 18.1659 8.4032 18.8661 10.7975 19.3347C13.2073 19.8033 15.7355 20.035 18.3564 20.035C20.107 20.035 21.7599 19.9371 23.3715 19.726C24.9677 19.4943 26.4404 19.1802 27.8049 18.7735C29.1642 18.3667 30.3331 17.8775 31.3423 17.2957C31.4967 16.616 31.6152 15.993 31.713 15.4111C31.8108 14.8293 31.8675 14.2629 31.9087 13.681H36.342C36.9033 13.0992 37.2379 12.7697 37.8198 12.2033H37.7992ZM27.8306 10.6328C27.0325 10.6328 26.4095 10.5556 25.9666 10.4011C25.4981 10.2466 25.2664 9.97371 25.2664 9.58239C25.2664 9.13442 25.4826 8.72764 25.91 8.35691C26.3168 8.00677 26.8214 7.81111 27.3878 7.81111C28.0881 7.81111 28.7111 8.08401 29.2518 8.62981C29.7976 9.17561 30.2249 9.83469 30.5545 10.6328H27.8358H27.8306Z" fill="black"/>
  <path d="M38.7362 24.216L37.2945 22.8155L35.6416 24.4477L37.2945 26.1418L38.7362 24.7206L40.1522 26.1418L41.8411 24.4477L40.1522 22.8155L38.7362 24.216Z" fill="black"/>
  <path d="M44.9513 1.90514L46.3724 3.34173L48.0613 1.65284L46.3724 0L44.9513 1.40054L43.5353 0L41.8618 1.65284L43.5353 3.34173L44.9513 1.90514Z" fill="black"/>
  <path d="M47.1294 7.85229C46.5836 7.30649 45.9451 7.01813 45.1882 7.01813C44.7197 7.01813 44.2562 7.17261 43.8289 7.46611C43.3809 7.77505 42.9947 8.16637 42.6446 8.65039C42.2944 9.1344 42.0009 9.70079 41.8104 10.3238C41.6148 10.9469 41.5169 11.5699 41.5169 12.1878C41.5169 13.161 41.7898 13.9385 42.3356 14.5203C42.8814 15.0816 43.659 15.3751 44.6476 15.3751C45.0543 15.3751 45.4251 15.3339 45.7752 15.2772C46.1254 15.2 46.4961 15.1021 46.8462 14.9271L47.5671 12.8263C47.8966 13.7789 48.0923 14.8653 48.1489 16.0908C47.6031 16.2452 46.9646 16.3997 46.2438 16.5387C45.5435 16.6932 44.8226 16.8116 44.1275 16.8889C43.4066 16.9661 42.8042 17.0073 42.279 17.0073V16.9867C41.2698 16.9867 40.5695 16.8528 40.1782 16.5799C39.8074 16.2864 39.5963 15.7046 39.5963 14.8292V12.9035H39.0505L38.3915 16.3431C37.789 16.7498 37.0321 16.9455 36.0795 16.9661C35.3793 16.9249 34.8541 16.791 34.5657 16.5799C34.1795 16.2864 33.9839 15.7046 33.9839 14.8292V14.3607H33.1497L32.779 16.3431L32.7378 16.7911L32.7584 17.239C32.8562 18.135 33.1858 18.8507 33.7316 19.3192C34.1177 19.6488 34.6275 19.865 35.2299 19.9629C35.3638 20.0195 35.5234 20.0401 35.6985 20.0401C35.8942 20.0195 36.0692 19.9989 36.2597 19.9423C36.8622 19.8239 37.408 19.6127 37.856 19.2626L38.3039 17.7488H38.3811C38.479 18.6447 38.8085 18.8558 39.3698 19.3244C39.931 19.8084 40.7291 20.0607 41.7589 20.0607L41.7795 20.0401C42.382 20.0401 43.1028 19.9835 43.8958 19.865C44.7299 19.7466 45.5075 19.5715 46.285 19.381C47.0419 19.1648 47.6649 18.9537 48.1489 18.722C48.4218 18.0217 48.6175 17.2442 48.7514 16.3534C48.8698 15.4574 48.947 14.5461 48.947 13.6347C48.947 12.332 48.7925 11.1837 48.463 10.1951C48.1335 9.20134 47.7061 8.42898 47.1397 7.86258L47.1294 7.85229ZM44.8741 12.6358C44.076 12.6358 43.453 12.5585 42.9896 12.4041C42.521 12.2496 42.3099 11.9767 42.3099 11.5853C42.3099 11.1374 42.5261 10.7512 42.9329 10.4217C43.3603 10.0715 43.8649 9.89647 44.4313 9.89647C44.9977 9.89647 45.5795 10.1127 46.0841 10.5195C46.5888 10.9469 46.9955 11.5287 47.3457 12.2856C46.7226 12.5173 45.9091 12.6358 44.8793 12.6358H44.8741Z" fill="black"/>
  <path d="M57.2164 10.7461C56.614 9.92736 55.8365 8.99539 54.8633 7.90894H54.2814L53.0354 10.6688C54.1836 11.642 55.1156 12.4761 55.8159 13.1558C56.5368 13.8355 57.0619 14.438 57.4275 14.922C57.7776 15.4266 58.03 15.8745 58.1484 16.2813C57.7622 16.477 57.237 16.652 56.5728 16.7859C55.9137 16.9198 55.095 17.0022 54.1218 17.0022C53.3031 17.0022 52.6852 16.9455 52.2579 16.8271C51.8099 16.7087 51.5216 16.5182 51.3619 16.2247C51.2075 15.9312 51.1302 15.5244 51.1302 14.9786H50.569C50.4506 15.3854 50.3527 15.7973 50.2961 16.1835C50.2394 16.5696 50.1982 16.9198 50.1982 17.2339C50.1982 18.1298 50.4712 18.8095 51.017 19.2935C51.5628 19.7981 52.4535 20.0298 53.679 20.0298C54.611 20.0298 55.4863 19.932 56.305 19.7209C57.1237 19.4892 57.7828 19.2163 58.2874 18.8661C58.5037 18.0114 58.6582 17.3111 58.7354 16.7087C58.8126 16.1062 58.8693 15.5244 58.8693 14.922C58.8693 14.2783 58.7354 13.6193 58.4831 12.9602C58.2102 12.3011 57.8034 11.5596 57.2216 10.7461H57.2164Z" fill="black"/>
  <path d="M0.916504 2.28101V0.75174H1.54471C1.67858 0.75174 1.79701 0.772333 1.89484 0.813526C1.99267 0.854718 2.06475 0.916499 2.11624 0.998884C2.16773 1.08127 2.19349 1.17911 2.19349 1.29238C2.19349 1.40566 2.16773 1.49835 2.11624 1.58073C2.06475 1.66312 1.98752 1.72491 1.89484 1.7661C1.80215 1.8073 1.68373 1.83305 1.54471 1.83305H1.07615L1.19973 1.70432V2.27586H0.916504V2.28101ZM1.19973 1.74035L1.07615 1.60133H1.5344C1.65797 1.60133 1.7558 1.57558 1.81759 1.51894C1.87938 1.46745 1.9103 1.39022 1.9103 1.29238C1.9103 1.19455 1.87938 1.12247 1.81759 1.07098C1.7558 1.01949 1.65797 0.993746 1.5344 0.993746H1.07615L1.19973 0.854711V1.74035ZM1.91542 2.28101L1.52924 1.7249H1.83305L2.21923 2.28101H1.91542Z" fill="black"/>
  <path d="M1.51898 3.03794C0.679682 3.03794 0 2.35826 0 1.51896C0 0.679666 0.679682 0 1.51898 0C2.35828 0 3.03796 0.679666 3.03796 1.51896C3.03796 2.35826 2.35828 3.03794 1.51898 3.03794ZM1.51898 0.252299C0.818707 0.252299 0.252299 0.818691 0.252299 1.51896C0.252299 2.21924 0.818707 2.78563 1.51898 2.78563C2.21925 2.78563 2.78563 2.21924 2.78563 1.51896C2.78563 0.818691 2.21925 0.252299 1.51898 0.252299Z" fill="black"/>
  <path d="M0.133789 40.6055C0.133789 36.8982 2.49204 34.7149 5.58663 34.7355C7.54842 34.7355 9.47419 35.8168 10.1127 37.6705V31.5792H12.6924V46.1458H10.1127V43.386C9.51538 45.1521 7.64111 46.3672 5.72051 46.3672C2.49719 46.3878 0.138943 43.8288 0.138943 40.6055H0.133789ZM6.35898 44.1995C8.27958 44.1789 9.99937 42.7011 9.99937 40.5797C9.99937 38.242 8.30018 36.893 6.35898 36.8724C4.37145 36.8518 2.71347 38.1545 2.71347 40.5797C2.71347 42.7423 4.41264 44.2201 6.35898 44.1995Z" fill="black"/>
  <path d="M14.1548 40.6055C14.1548 36.8981 16.5131 34.7149 19.6077 34.7355C21.5694 34.7355 23.4952 35.8168 24.1337 37.6705V34.9569H26.7133V46.1458H24.1337V43.3859C23.5364 45.1521 21.6621 46.3672 19.7415 46.3672C16.5182 46.3878 14.1599 43.8288 14.1599 40.6055H14.1548ZM20.38 44.1995C22.3006 44.1789 24.0255 42.7011 24.0255 40.5797C24.0255 38.2626 22.3264 36.893 20.38 36.8724C18.3925 36.8518 16.7345 38.1545 16.7345 40.5797C16.7345 42.7423 18.4337 44.2201 20.38 44.1995Z" fill="black"/>
  <path d="M33.5666 46.3621C30.5183 46.3827 28.1807 44.1995 28.1807 40.5334C28.1807 37.3306 30.5183 34.8179 33.6953 34.8385C35.6159 34.8385 37.449 36.0743 38.0463 37.8198V35.1269H40.626V50.0282H38.0463V43.4529C37.4078 45.2859 35.5078 46.3672 33.5614 46.3672L33.5666 46.3621ZM34.339 44.2252C36.2595 44.2046 37.9381 42.8762 37.9381 40.5591C37.9381 38.4634 36.2595 37.0268 34.339 37.0062C32.4184 36.9856 30.7655 38.4428 30.7655 40.5591C30.7655 42.9431 32.4029 44.2458 34.339 44.2252Z" fill="black"/>
  <path d="M43.525 31.4401C44.2767 31.4401 44.9616 31.883 44.9616 32.542C44.9616 33.2011 44.2767 33.6645 43.525 33.6645C42.7732 33.6645 42.0884 33.2217 42.0884 32.542C42.0884 31.8624 42.7732 31.4401 43.525 31.4401ZM42.2223 34.9518H44.8071V46.1407H42.2223V34.9518Z" fill="black"/>
  <path d="M51.8044 46.3621C48.7561 46.3827 46.4185 44.1995 46.4185 40.5334C46.4185 37.3306 48.7561 34.8179 51.9331 34.8385C53.8537 34.8385 55.6867 36.0743 56.284 37.8198V35.1269H58.8637V50.0282H56.284V43.4529C55.6456 45.2859 53.7455 46.3672 51.7992 46.3672L51.8044 46.3621ZM52.5767 44.2252C54.4973 44.2046 56.1759 42.8762 56.1759 40.5591C56.1759 38.4634 54.4973 37.0268 52.5767 37.0062C50.6561 36.9856 49.0033 38.4428 49.0033 40.5591C49.0033 42.9431 50.6407 44.2458 52.5767 44.2252Z" fill="black"/>
</svg>